{
  "source": "C:\\Users\\Peter\\Desktop\\stuff\\MIUN\\quantitative_research\\video_compression\\videos\\BVI-HD\\BVI-HD_CDVL_videos\\ORIG\\BallUnderWater_1920x1080_60fps.mp4",
  "output": "C:\\Users\\Peter\\Desktop\\stuff\\MIUN\\quantitative_research\\video_compression\\compressed_videos\\BVI-HD\\vp9\\3\\BallUnderWater_1920x1080_60fps_vp9.webm",
  "codec": "vp9",
  "ok": "Input #0, mov,mp4,m4a,3gp,3g2,mj2, from 'C:\\Users\\Peter\\Desktop\\stuff\\MIUN\\quantitative_research\\video_compression\\videos\\BVI-HD\\BVI-HD_CDVL_videos\\ORIG\\BallUnderWater_1920x1080_60fps.mp4':\n  Metadata:\n    major_brand     : isom\n    minor_version   : 512\n    compatible_brands: isomiso2avc1mp41\n    encoder         : Lavf54.28.101\n  Duration: 00:00:05.00, start: 0.000000, bitrate: 212030 kb/s\n  Stream #0:0[0x1](und): Video: h264 (High 4:4:4 Predictive) (avc1 / 0x31637661), yuv420p(progressive), 1920x1080, 212025 kb/s, 60 fps, 60 tbr, 60 tbn (default)\n    Metadata:\n      handler_name    : VideoHandler\n      vendor_id       : [0][0][0][0]\n[out#0/webm @ 000001c397caa040] Codec AVOption b:a (set bitrate (in bits/s)) has not been used for any stream. The most likely reason is either wrong type (e.g. a video option with no video streams) or that it is a private option of some decoder which was not actually used for any stream.\nStream mapping:\n  Stream #0:0 -> #0:0 (h264 (native) -> vp9 (libvpx-vp9))\nPress [q] to stop, [?] for help\n[libvpx-vp9 @ 000001c397b64b00] v1.15.2-100-g40561f514\nOutput #0, webm, to 'C:\\Users\\Peter\\Desktop\\stuff\\MIUN\\quantitative_research\\video_compression\\compressed_videos\\BVI-HD\\vp9\\3\\BallUnderWater_1920x1080_60fps_vp9.webm':\n  Metadata:\n    major_brand     : isom\n    minor_version   : 512\n    compatible_brands: isomiso2avc1mp41\n    encoder         : Lavf62.3.100\n  Stream #0:0(und): Video: vp9, yuv420p(tv, progressive), 1920x1080, q=2-31, 3000 kb/s, 60 fps, 1k tbn (default)\n    Metadata:\n      encoder         : Lavc62.11.100 libvpx-vp9\n      handler_name    : VideoHandler\n      vendor_id       : [0][0][0][0]\n    Side data:\n      cpb: bitrate max/min/avg: 0/0/0 buffer size: 3000000 vbv_delay: N/A\nframe=    0 fps=0.0 q=0.0 size=       0KiB time=N/A bitrate=N/A speed=N/A elapsed=0:00:00.52    \nframe=    6 fps=3.5 q=49.0 size=       1KiB time=00:00:00.08 bitrate=  60.8kbits/s speed=0.049x elapsed=0:00:01.70    \nframe=   10 fps=4.2 q=46.0 size=       1KiB time=00:00:00.16 bitrate=  30.4kbits/s speed=0.0702x elapsed=0:00:02.37    \nframe=   14 fps=4.8 q=45.0 size=       1KiB time=00:00:00.23 bitrate=  21.7kbits/s speed=0.0796x elapsed=0:00:02.93    \nframe=   18 fps=5.2 q=45.0 size=       1KiB time=00:00:00.28 bitrate=  17.9kbits/s speed=0.0817x elapsed=0:00:03.46    \nframe=   22 fps=5.3 q=45.0 size=       1KiB time=00:00:00.36 bitrate=  13.8kbits/s speed=0.0885x elapsed=0:00:04.14    \nframe=   26 fps=5.6 q=45.0 size=       1KiB time=00:00:00.41 bitrate=  12.2kbits/s speed=0.0892x elapsed=0:00:04.67    \nframe=   31 fps=5.8 q=48.0 size=       1KiB time=00:00:00.50 bitrate=  10.1kbits/s speed=0.0929x elapsed=0:00:05.38    \nframe=   34 fps=5.6 q=49.0 size=       1KiB time=00:00:00.56 bitrate=   8.9kbits/s speed=0.0934x elapsed=0:00:06.06    \nframe=   38 fps=5.7 q=48.0 size=       1KiB time=00:00:00.61 bitrate=   8.2kbits/s speed=0.0929x elapsed=0:00:06.64    \nframe=   43 fps=5.9 q=35.0 size=       1KiB time=00:00:00.71 bitrate=   7.1kbits/s speed=0.0988x elapsed=0:00:07.25    \nframe=   48 fps=6.1 q=47.0 size=       1KiB time=00:00:00.80 bitrate=   6.3kbits/s speed=0.102x elapsed=0:00:07.81    \nframe=   53 fps=6.3 q=46.0 size=       1KiB time=00:00:00.88 bitrate=   5.7kbits/s speed=0.106x elapsed=0:00:08.36    \nframe=   57 fps=6.4 q=45.0 size=       1KiB time=00:00:00.93 bitrate=   5.4kbits/s speed=0.104x elapsed=0:00:08.96    \nframe=   59 fps=6.1 q=45.0 size=       1KiB time=00:00:00.98 bitrate=   5.1kbits/s speed=0.102x elapsed=0:00:09.66    \nframe=   61 fps=6.0 q=32.0 size=       1KiB time=00:00:01.01 bitrate=   5.0kbits/s speed=0.0999x elapsed=0:00:10.18    \nframe=   64 fps=6.0 q=42.0 size=       1KiB time=00:00:01.06 bitrate=   4.7kbits/s speed=0.0997x elapsed=0:00:10.70    \nframe=   68 fps=6.1 q=42.0 size=       1KiB time=00:00:01.11 bitrate=   4.5kbits/s speed=0.0996x elapsed=0:00:11.21    \nframe=   71 fps=6.0 q=42.0 size=       1KiB time=00:00:01.18 bitrate=   4.3kbits/s speed=0.0993x elapsed=0:00:11.91    \nframe=   75 fps=6.0 q=41.0 size=       1KiB time=00:00:01.25 bitrate=   4.1kbits/s speed= 0.1x elapsed=0:00:12.49    \nframe=   80 fps=6.1 q=40.0 size=       1KiB time=00:00:01.33 bitrate=   3.8kbits/s speed=0.102x elapsed=0:00:13.05    \nframe=   84 fps=6.2 q=40.0 size=       1KiB time=00:00:01.40 bitrate=   3.6kbits/s speed=0.103x elapsed=0:00:13.58    \nframe=   87 fps=6.2 q=41.0 size=       1KiB time=00:00:01.45 bitrate=   3.5kbits/s speed=0.103x elapsed=0:00:14.12    \nframe=   92 fps=6.3 q=45.0 size=       1KiB time=00:00:01.51 bitrate=   3.3kbits/s speed=0.103x elapsed=0:00:14.70    \nframe=   96 fps=6.2 q=44.0 size=       1KiB time=00:00:01.60 bitrate=   3.2kbits/s speed=0.104x elapsed=0:00:15.40    \nframe=  100 fps=6.2 q=47.0 size=       1KiB time=00:00:01.66 bitrate=   3.0kbits/s speed=0.103x elapsed=0:00:16.12    \nframe=  104 fps=6.2 q=42.0 size=       1KiB time=00:00:01.73 bitrate=   2.9kbits/s speed=0.104x elapsed=0:00:16.70    \nframe=  107 fps=6.2 q=42.0 size=       1KiB time=00:00:01.78 bitrate=   2.8kbits/s speed=0.103x elapsed=0:00:17.27    \nframe=  111 fps=6.2 q=42.0 size=       1KiB time=00:00:01.85 bitrate=   2.7kbits/s speed=0.104x elapsed=0:00:17.83    \nframe=  114 fps=6.2 q=43.0 size=       1KiB time=00:00:01.90 bitrate=   2.7kbits/s speed=0.103x elapsed=0:00:18.38    \nframe=  119 fps=6.3 q=44.0 size=       1KiB time=00:00:01.98 bitrate=   2.6kbits/s speed=0.104x elapsed=0:00:18.99    \nframe=  121 fps=6.2 q=44.0 size=       1KiB time=00:00:02.01 bitrate=   2.5kbits/s speed=0.103x elapsed=0:00:19.51    \nframe=  125 fps=6.2 q=43.0 size=       1KiB time=00:00:02.08 bitrate=   2.4kbits/s speed=0.104x elapsed=0:00:20.09    \nframe=  128 fps=6.2 q=44.0 size=       1KiB time=00:00:02.13 bitrate=   2.4kbits/s speed=0.103x elapsed=0:00:20.67    \nframe=  133 fps=6.3 q=46.0 size=     512KiB time=00:00:02.21 bitrate=1892.2kbits/s speed=0.104x elapsed=0:00:21.21    \nframe=  138 fps=6.3 q=45.0 size=     512KiB time=00:00:02.28 bitrate=1836.9kbits/s speed=0.105x elapsed=0:00:21.81    \nframe=  141 fps=6.3 q=32.0 size=     512KiB time=00:00:02.35 bitrate=1784.8kbits/s speed=0.105x elapsed=0:00:22.43    \nframe=  145 fps=6.3 q=42.0 size=     512KiB time=00:00:02.41 bitrate=1735.6kbits/s speed=0.105x elapsed=0:00:22.99    \nframe=  150 fps=6.4 q=43.0 size=     512KiB time=00:00:02.48 bitrate=1689.0kbits/s speed=0.105x elapsed=0:00:23.57    \nframe=  154 fps=6.4 q=44.0 size=     512KiB time=00:00:02.56 bitrate=1634.1kbits/s speed=0.106x elapsed=0:00:24.20    \nframe=  158 fps=6.4 q=44.0 size=     512KiB time=00:00:02.63 bitrate=1592.8kbits/s speed=0.107x elapsed=0:00:24.71    \nframe=  161 fps=6.4 q=44.0 size=     512KiB time=00:00:02.68 bitrate=1563.1kbits/s speed=0.106x elapsed=0:00:25.22    \nframe=  164 fps=6.4 q=45.0 size=     512KiB time=00:00:02.73 bitrate=1534.5kbits/s speed=0.106x elapsed=0:00:25.75    \nframe=  167 fps=6.4 q=41.0 size=     512KiB time=00:00:02.78 bitrate=1506.9kbits/s speed=0.106x elapsed=0:00:26.29    \nframe=  171 fps=6.4 q=41.0 size=     512KiB time=00:00:02.85 bitrate=1471.7kbits/s speed=0.106x elapsed=0:00:26.91    \nframe=  174 fps=6.3 q=41.0 size=     512KiB time=00:00:02.90 bitrate=1446.3kbits/s speed=0.105x elapsed=0:00:27.52    \nframe=  178 fps=6.3 q=39.0 size=     512KiB time=00:00:02.96 bitrate=1413.8kbits/s speed=0.106x elapsed=0:00:28.04    \nframe=  183 fps=6.4 q=37.0 size=     512KiB time=00:00:03.05 bitrate=1375.2kbits/s speed=0.107x elapsed=0:00:28.59    \nframe=  187 fps=6.4 q=38.0 size=     512KiB time=00:00:03.11 bitrate=1345.8kbits/s speed=0.107x elapsed=0:00:29.16    \nframe=  189 fps=6.3 q=41.0 size=     512KiB time=00:00:03.15 bitrate=1331.5kbits/s speed=0.106x elapsed=0:00:29.80    \nframe=  193 fps=6.3 q=43.0 size=     512KiB time=00:00:03.20 bitrate=1310.7kbits/s speed=0.105x elapsed=0:00:30.50    \nframe=  196 fps=6.3 q=43.0 size=     512KiB time=00:00:03.26 bitrate=1284.0kbits/s speed=0.105x elapsed=0:00:31.20    \nframe=  200 fps=6.3 q=31.0 size=     512KiB time=00:00:03.31 bitrate=1264.6kbits/s speed=0.104x elapsed=0:00:31.74    \nframe=  205 fps=6.3 q=44.0 size=     512KiB time=00:00:03.41 bitrate=1227.6kbits/s speed=0.105x elapsed=0:00:32.39    \nframe=  206 fps=6.3 q=31.0 size=     512KiB time=00:00:03.43 bitrate=1221.6kbits/s speed=0.104x elapsed=0:00:32.95    \nframe=  209 fps=6.2 q=46.0 size=     512KiB time=00:00:03.48 bitrate=1204.1kbits/s speed=0.104x elapsed=0:00:33.48    \nframe=  211 fps=6.2 q=47.0 size=     512KiB time=00:00:03.51 bitrate=1192.7kbits/s speed=0.103x elapsed=0:00:34.01    \nframe=  215 fps=6.2 q=49.0 size=     512KiB time=00:00:03.58 bitrate=1170.5kbits/s speed=0.104x elapsed=0:00:34.54    \nframe=  219 fps=6.2 q=49.0 size=     512KiB time=00:00:03.65 bitrate=1149.1kbits/s speed=0.104x elapsed=0:00:35.07    \nframe=  222 fps=6.2 q=48.0 size=     512KiB time=00:00:03.70 bitrate=1133.6kbits/s speed=0.104x elapsed=0:00:35.65    \nframe=  225 fps=6.2 q=48.0 size=     512KiB time=00:00:03.75 bitrate=1118.5kbits/s speed=0.103x elapsed=0:00:36.24    \nframe=  228 fps=6.2 q=46.0 size=     512KiB time=00:00:03.80 bitrate=1103.8kbits/s speed=0.103x elapsed=0:00:36.83    \nframe=  231 fps=6.2 q=43.0 size=     512KiB time=00:00:03.85 bitrate=1089.4kbits/s speed=0.103x elapsed=0:00:37.38    \nframe=  235 fps=6.2 q=43.0 size=     512KiB time=00:00:03.91 bitrate=1070.9kbits/s speed=0.103x elapsed=0:00:37.93    \nframe=  239 fps=6.2 q=42.0 size=     512KiB time=00:00:03.98 bitrate=1053.0kbits/s speed=0.104x elapsed=0:00:38.45    \nframe=  241 fps=6.2 q=41.0 size=     512KiB time=00:00:04.01 bitrate=1044.2kbits/s speed=0.103x elapsed=0:00:38.99    \nframe=  245 fps=6.2 q=45.0 size=     512KiB time=00:00:04.08 bitrate=1027.2kbits/s speed=0.103x elapsed=0:00:39.56    \nframe=  247 fps=6.2 q=45.0 size=     512KiB time=00:00:04.11 bitrate=1018.9kbits/s speed=0.103x elapsed=0:00:40.14    \nframe=  251 fps=6.2 q=43.0 size=     512KiB time=00:00:04.18 bitrate=1002.6kbits/s speed=0.103x elapsed=0:00:40.67    \nframe=  256 fps=6.2 q=42.0 size=     512KiB time=00:00:04.25 bitrate= 986.9kbits/s speed=0.103x elapsed=0:00:41.22    \nframe=  262 fps=6.3 q=44.0 size=    1280KiB time=00:00:04.36 bitrate=2401.3kbits/s speed=0.104x elapsed=0:00:41.87    \nframe=  264 fps=6.2 q=40.0 size=    1280KiB time=00:00:04.40 bitrate=2383.1kbits/s speed=0.104x elapsed=0:00:42.41    \nframe=  268 fps=6.2 q=41.0 size=    1280KiB time=00:00:04.45 bitrate=2356.4kbits/s speed=0.104x elapsed=0:00:42.94    \nframe=  272 fps=6.2 q=44.0 size=    1280KiB time=00:00:04.53 bitrate=2313.0kbits/s speed=0.104x elapsed=0:00:43.63    \nframe=  276 fps=6.2 q=48.0 size=    1280KiB time=00:00:04.56 bitrate=2296.2kbits/s speed=0.103x elapsed=0:00:44.31    \nframe=  276 fps=6.1 q=48.0 size=    1280KiB time=00:00:04.60 bitrate=2279.5kbits/s speed=0.102x elapsed=0:00:45.08    \nframe=  276 fps=6.0 q=48.0 size=    1280KiB time=00:00:04.60 bitrate=2279.5kbits/s speed=0.101x elapsed=0:00:45.74    \nframe=  276 fps=6.0 q=48.0 size=    1280KiB time=00:00:04.60 bitrate=2279.5kbits/s speed=0.0993x elapsed=0:00:46.31    \nframe=  276 fps=5.9 q=48.0 size=    1280KiB time=00:00:04.60 bitrate=2279.5kbits/s speed=0.0982x elapsed=0:00:46.84    \nframe=  276 fps=5.8 q=48.0 size=    1280KiB time=00:00:04.60 bitrate=2279.5kbits/s speed=0.0971x elapsed=0:00:47.38    \n[out#0/webm @ 000001c397caa040] video:1508KiB audio:0KiB subtitle:0KiB other streams:0KiB global headers:0KiB muxing overhead: 0.183038%\nframe=  300 fps=6.3 q=39.0 Lsize=    1511KiB time=00:00:05.00 bitrate=2474.8kbits/s speed=0.104x elapsed=0:00:47.85    \n",
  "seconds": 48.46531844139099,
  "probe_out": {}
}